REM DIRINDEX 1\5,1\2\6,1\2\7,1\3\8,1\3\9,1\3\10,1\3\11,1\4\12,1\4\13,1\4\14
REM DIRNAME cjc043,folder01,folder02,folder03,folder04,folder05,folder06,folder07,folder08,folder09,folder10,folder11,folder12,folder13
TITLE ""
FILE "5Q_h_033-043.mp3" MP3
  TRACK 01 AUDIO
    TITLE "12:cjc043_0099"
    INDEX 01 00:00:00
  TRACK 02 AUDIO
    TITLE "0:"
    INDEX 01 00:01:17
  TRACK 03 AUDIO
    TITLE "13:cjc043_0100"
    INDEX 01 00:01:69
  TRACK 04 AUDIO
    TITLE "0:"
    INDEX 01 00:03:17
  TRACK 05 AUDIO
    TITLE "14:cjc043_0101"
    INDEX 01 00:03:68
  TRACK 06 AUDIO
    TITLE "0:"
    INDEX 01 00:05:05
  TRACK 07 AUDIO
    TITLE "12:cjc043_0102"
    INDEX 01 00:05:56
  TRACK 08 AUDIO
    TITLE "0:"
    INDEX 01 00:06:69
  TRACK 09 AUDIO
    TITLE "13:cjc043_0103"
    INDEX 01 00:07:43
  TRACK 10 AUDIO
    TITLE "0:"
    INDEX 01 00:08:56
  TRACK 11 AUDIO
    TITLE "14:cjc043_0104"
    INDEX 01 00:09:30
  TRACK 12 AUDIO
    TITLE "0:"
    INDEX 01 00:10:61
  TRACK 13 AUDIO
    TITLE "12:cjc043_0105"
    INDEX 01 00:11:39
  TRACK 14 AUDIO
    TITLE "0:"
    INDEX 01 00:12:54
  TRACK 15 AUDIO
    TITLE "13:cjc043_0106"
    INDEX 01 00:13:30
  TRACK 16 AUDIO
    TITLE "0:"
    INDEX 01 00:14:45
  TRACK 17 AUDIO
    TITLE "14:cjc043_0107"
    INDEX 01 00:15:27
  TRACK 18 AUDIO
    TITLE "0:"
    INDEX 01 00:16:51
  TRACK 19 AUDIO
    TITLE "12:cjc043_0108"
    INDEX 01 00:17:33
  TRACK 20 AUDIO
    TITLE "0:"
    INDEX 01 00:18:33
  TRACK 21 AUDIO
    TITLE "13:cjc043_0109"
    INDEX 01 00:19:07
  TRACK 22 AUDIO
    TITLE "0:"
    INDEX 01 00:20:08
  TRACK 23 AUDIO
    TITLE "14:cjc043_0110"
    INDEX 01 00:20:57
  TRACK 24 AUDIO
    TITLE "0:"
    INDEX 01 00:22:05
  TRACK 25 AUDIO
    TITLE "12:cjc043_0111"
    INDEX 01 00:22:58
  TRACK 26 AUDIO
    TITLE "0:"
    INDEX 01 00:24:27
  TRACK 27 AUDIO
    TITLE "13:cjc043_0112"
    INDEX 01 00:25:03
  TRACK 28 AUDIO
    TITLE "0:"
    INDEX 01 00:26:48
  TRACK 29 AUDIO
    TITLE "14:cjc043_0113"
    INDEX 01 00:27:26
  TRACK 30 AUDIO
    TITLE "0:"
    INDEX 01 00:29:44
  TRACK 31 AUDIO
    TITLE "12:cjc043_0114"
    INDEX 01 00:30:24
  TRACK 32 AUDIO
    TITLE "0:"
    INDEX 01 00:32:09
  TRACK 33 AUDIO
    TITLE "13:cjc043_0115"
    INDEX 01 00:32:66
  TRACK 34 AUDIO
    TITLE "0:"
    INDEX 01 00:34:51
  TRACK 35 AUDIO
    TITLE "14:cjc043_0116"
    INDEX 01 00:35:29
  TRACK 36 AUDIO
    TITLE "0:"
    INDEX 01 00:36:48
  TRACK 37 AUDIO
    TITLE "12:cjc043_0117"
    INDEX 01 00:37:24
  TRACK 38 AUDIO
    TITLE "0:"
    INDEX 01 00:39:29
  TRACK 39 AUDIO
    TITLE "13:cjc043_0118"
    INDEX 01 00:40:09
  TRACK 40 AUDIO
    TITLE "0:"
    INDEX 01 00:42:14
  TRACK 41 AUDIO
    TITLE "14:cjc043_0119"
    INDEX 01 00:42:70
  TRACK 42 AUDIO
    TITLE "0:"
    INDEX 01 00:44:48
  TRACK 43 AUDIO
    TITLE "12:cjc043_0120"
    INDEX 01 00:45:24
  TRACK 44 AUDIO
    TITLE "0:"
    INDEX 01 00:47:05
  TRACK 45 AUDIO
    TITLE "13:cjc043_0121"
    INDEX 01 00:47:60
  TRACK 46 AUDIO
    TITLE "0:"
    INDEX 01 00:49:41
  TRACK 47 AUDIO
    TITLE "14:cjc043_0122"
    INDEX 01 00:50:23
  TRACK 48 AUDIO
    TITLE "0:"
    INDEX 01 00:51:65
  TRACK 49 AUDIO
    TITLE "12:cjc043_0123"
    INDEX 01 00:52:49
  TRACK 50 AUDIO
    TITLE "0:"
    INDEX 01 00:54:42
  TRACK 51 AUDIO
    TITLE "13:cjc043_0124"
    INDEX 01 00:55:24
  TRACK 52 AUDIO
    TITLE "0:"
    INDEX 01 00:57:19
  TRACK 53 AUDIO
    TITLE "14:cjc043_0125"
    INDEX 01 00:58:01
  TRACK 54 AUDIO
    TITLE "0:"
    INDEX 01 00:59:51
  TRACK 55 AUDIO
    TITLE "12:cjc043_0126"
    INDEX 01 01:00:25
  TRACK 56 AUDIO
    TITLE "0:"
    INDEX 01 01:02:42
  TRACK 57 AUDIO
    TITLE "13:cjc043_0127"
    INDEX 01 01:03:22
  TRACK 58 AUDIO
    TITLE "0:"
    INDEX 01 01:05:38
  TRACK 59 AUDIO
    TITLE "14:cjc043_0128"
    INDEX 01 01:06:20
  TRACK 60 AUDIO
    TITLE "0:"
    INDEX 01 01:08:01
  TRACK 61 AUDIO
    TITLE "12:cjc043_0129"
    INDEX 01 01:08:60
  TRACK 62 AUDIO
    TITLE "0:"
    INDEX 01 01:10:71
  TRACK 63 AUDIO
    TITLE "13:cjc043_0130"
    INDEX 01 01:11:54
  TRACK 64 AUDIO
    TITLE "0:"
    INDEX 01 01:13:65
  TRACK 65 AUDIO
    TITLE "14:cjc043_0131"
    INDEX 01 01:14:47
  TRACK 66 AUDIO
    TITLE "0:"
    INDEX 01 01:16:52
